<svg width="19" height="19" viewBox="0 0 19 19" fill="none" xmlns="http://www.w3.org/2000/svg">
<g clip-path="url(#clip0_590_3503)">
<path fill-rule="evenodd" clip-rule="evenodd" d="M3.958 16.625C3.958 16.3131 4.01943 16.0043 4.13879 15.7161C4.25814 15.428 4.43308 15.1662 4.65362 14.9456C4.87416 14.7251 5.13598 14.5501 5.42413 14.4308C5.71228 14.3114 6.02111 14.25 6.333 14.25C6.64489 14.25 6.95372 14.3114 7.24187 14.4308C7.53002 14.5501 7.79184 14.7251 8.01238 14.9456C8.23292 15.1662 8.40786 15.428 8.52721 15.7161C8.64657 16.0043 8.708 16.3131 8.708 16.625C8.708 17.2549 8.45778 17.859 8.01238 18.3044C7.56698 18.7498 6.96289 19 6.333 19C5.70311 19 5.09902 18.7498 4.65362 18.3044C4.20822 17.859 3.958 17.2549 3.958 16.625ZM6.333 15.833C6.12295 15.833 5.9215 15.9164 5.77297 16.065C5.62444 16.2135 5.541 16.4149 5.541 16.625C5.541 16.8351 5.62444 17.0365 5.77297 17.185C5.9215 17.3336 6.12295 17.417 6.333 17.417C6.54305 17.417 6.7445 17.3336 6.89303 17.185C7.04156 17.0365 7.125 16.8351 7.125 16.625C7.125 16.4149 7.04156 16.2135 6.89303 16.065C6.7445 15.9164 6.54305 15.833 6.333 15.833ZM13.459 16.625C13.459 15.9951 13.7092 15.391 14.1546 14.9456C14.6 14.5002 15.2041 14.25 15.834 14.25C16.4639 14.25 17.068 14.5002 17.5134 14.9456C17.9588 15.391 18.209 15.9951 18.209 16.625C18.209 17.2549 17.9588 17.859 17.5134 18.3044C17.068 18.7498 16.4639 19 15.834 19C15.2041 19 14.6 18.7498 14.1546 18.3044C13.7092 17.859 13.459 17.2549 13.459 16.625ZM15.834 15.833C15.6239 15.833 15.4225 15.9164 15.274 16.065C15.1254 16.2135 15.042 16.4149 15.042 16.625C15.042 16.8351 15.1254 17.0365 15.274 17.185C15.4225 17.3336 15.6239 17.417 15.834 17.417C16.0441 17.417 16.2455 17.3336 16.394 17.185C16.5426 17.0365 16.626 16.8351 16.626 16.625C16.626 16.4149 16.5426 16.2135 16.394 16.065C16.2455 15.9164 16.0441 15.833 15.834 15.833ZM0 0.792C0 0.354 0.354 0 0.792 0H2.574C3.14971 0.000924374 3.70549 0.210936 4.13795 0.590969C4.5704 0.971002 4.8501 1.49518 4.925 2.066L5.175 3.958H18.208C18.3252 3.95795 18.4409 3.98391 18.5468 4.03399C18.6528 4.08408 18.7463 4.15704 18.8206 4.24763C18.8949 4.33822 18.9482 4.44417 18.9767 4.55785C19.0051 4.67152 19.0079 4.79009 18.985 4.905L17.655 11.546V11.547C17.5465 12.0922 17.2501 12.582 16.8176 12.9312C16.3851 13.2804 15.8438 13.4668 15.288 13.458H6.93C6.351 13.462 5.79049 13.2543 5.35386 12.874C4.91723 12.4937 4.63456 11.9671 4.559 11.393L0 0.792ZM4.559 11.393L3.356 2.273C3.33125 2.08246 3.23808 1.90741 3.09385 1.78046C2.94961 1.65352 2.76414 1.58334 2.572 1.583H0.792C0.582122 1.583 0.380825 1.49969 0.232325 1.35138C0.0838246 1.20307 0.000264998 1.00188 0 0.792L4.559 11.393ZM5.384 5.542L6.129 11.186C6.15412 11.3776 6.2484 11.5533 6.39408 11.6802C6.53976 11.8071 6.7268 11.8764 6.92 11.875H15.31C15.4958 11.8788 15.677 11.817 15.8218 11.7005C15.9667 11.5841 16.0659 11.4203 16.102 11.238V11.237L17.242 5.542H5.384Z" fill="white"/>
</g>
<defs>
<clipPath id="clip0_590_3503">
<rect width="19" height="19" fill="white"/>
</clipPath>
</defs>
</svg>
